<mxfile host="app.diagrams.net" modified="2024-05-24T04:23:40.581Z" agent="Mozilla/5.0 (Macintosh; Intel Mac OS X 10_15_7) AppleWebKit/605.1.15 (KHTML, like Gecko) Version/17.5 Safari/605.1.15" etag="7CP6mLp1bF3YkOfebINR" version="24.4.7" type="github">
  <diagram name="Page-1" id="edf60f1a-56cd-e834-aa8a-f176f3a09ee4">
    <mxGraphModel dx="824" dy="849" grid="1" gridSize="10" guides="1" tooltips="1" connect="1" arrows="1" fold="1" page="1" pageScale="1" pageWidth="1100" pageHeight="850" background="none" math="0" shadow="0">
      <root>
        <mxCell id="0" />
        <mxCell id="1" parent="0" />
        <mxCell id="xuy46jT9oB1GYO3vlyH4-3" value="Verification Planning" style="rounded=1;whiteSpace=wrap;html=1;fontFamily=Verdana;" vertex="1" parent="1">
          <mxGeometry x="40" y="40" width="160" height="40" as="geometry" />
        </mxCell>
        <mxCell id="xuy46jT9oB1GYO3vlyH4-5" value="Testbench Development" style="rounded=1;whiteSpace=wrap;html=1;fontFamily=Verdana;" vertex="1" parent="1">
          <mxGeometry x="40" y="100" width="160" height="40" as="geometry" />
        </mxCell>
        <mxCell id="xuy46jT9oB1GYO3vlyH4-6" value="Test Cases Coding" style="rounded=1;whiteSpace=wrap;html=1;fontFamily=Verdana;" vertex="1" parent="1">
          <mxGeometry x="40" y="160" width="160" height="40" as="geometry" />
        </mxCell>
        <mxCell id="xuy46jT9oB1GYO3vlyH4-7" value="Simulation/Debugging" style="rounded=1;whiteSpace=wrap;html=1;fontFamily=Verdana;" vertex="1" parent="1">
          <mxGeometry x="40" y="220" width="160" height="40" as="geometry" />
        </mxCell>
        <mxCell id="xuy46jT9oB1GYO3vlyH4-8" value="Coverage Analysis" style="rounded=1;whiteSpace=wrap;html=1;fontFamily=Verdana;" vertex="1" parent="1">
          <mxGeometry x="40" y="280" width="160" height="40" as="geometry" />
        </mxCell>
        <mxCell id="xuy46jT9oB1GYO3vlyH4-14" style="edgeStyle=orthogonalEdgeStyle;rounded=0;orthogonalLoop=1;jettySize=auto;html=1;exitX=0.5;exitY=1;exitDx=0;exitDy=0;entryX=0.5;entryY=0;entryDx=0;entryDy=0;" edge="1" parent="1" source="xuy46jT9oB1GYO3vlyH4-12" target="xuy46jT9oB1GYO3vlyH4-13">
          <mxGeometry relative="1" as="geometry" />
        </mxCell>
        <mxCell id="xuy46jT9oB1GYO3vlyH4-12" value="Verification Planning" style="rounded=1;whiteSpace=wrap;html=1;fontFamily=Verdana;" vertex="1" parent="1">
          <mxGeometry x="359.91" y="40" width="160" height="40" as="geometry" />
        </mxCell>
        <mxCell id="xuy46jT9oB1GYO3vlyH4-16" value="" style="edgeStyle=orthogonalEdgeStyle;rounded=0;orthogonalLoop=1;jettySize=auto;html=1;" edge="1" parent="1" source="xuy46jT9oB1GYO3vlyH4-13" target="xuy46jT9oB1GYO3vlyH4-15">
          <mxGeometry relative="1" as="geometry" />
        </mxCell>
        <mxCell id="xuy46jT9oB1GYO3vlyH4-13" value="Testbench Development" style="rounded=1;whiteSpace=wrap;html=1;fontFamily=Verdana;" vertex="1" parent="1">
          <mxGeometry x="359.91" y="120" width="160" height="40" as="geometry" />
        </mxCell>
        <mxCell id="xuy46jT9oB1GYO3vlyH4-18" style="edgeStyle=orthogonalEdgeStyle;rounded=0;orthogonalLoop=1;jettySize=auto;html=1;exitX=0.5;exitY=1;exitDx=0;exitDy=0;entryX=0.5;entryY=0;entryDx=0;entryDy=0;" edge="1" parent="1" source="xuy46jT9oB1GYO3vlyH4-15" target="xuy46jT9oB1GYO3vlyH4-17">
          <mxGeometry relative="1" as="geometry" />
        </mxCell>
        <mxCell id="xuy46jT9oB1GYO3vlyH4-15" value="Test Cases Coding" style="rounded=1;whiteSpace=wrap;html=1;fontFamily=Verdana;" vertex="1" parent="1">
          <mxGeometry x="359.91" y="200" width="160" height="40" as="geometry" />
        </mxCell>
        <mxCell id="xuy46jT9oB1GYO3vlyH4-19" style="edgeStyle=orthogonalEdgeStyle;rounded=0;orthogonalLoop=1;jettySize=auto;html=1;exitX=1;exitY=0.5;exitDx=0;exitDy=0;entryX=1;entryY=0.5;entryDx=0;entryDy=0;" edge="1" parent="1" source="xuy46jT9oB1GYO3vlyH4-17" target="xuy46jT9oB1GYO3vlyH4-15">
          <mxGeometry relative="1" as="geometry" />
        </mxCell>
        <mxCell id="xuy46jT9oB1GYO3vlyH4-22" style="edgeStyle=orthogonalEdgeStyle;rounded=0;orthogonalLoop=1;jettySize=auto;html=1;exitX=0.5;exitY=1;exitDx=0;exitDy=0;entryX=0.5;entryY=0;entryDx=0;entryDy=0;" edge="1" parent="1" source="xuy46jT9oB1GYO3vlyH4-17" target="xuy46jT9oB1GYO3vlyH4-21">
          <mxGeometry relative="1" as="geometry" />
        </mxCell>
        <mxCell id="xuy46jT9oB1GYO3vlyH4-17" value="Simulation/Debugging" style="rounded=1;whiteSpace=wrap;html=1;fontFamily=Verdana;" vertex="1" parent="1">
          <mxGeometry x="359.91" y="280" width="160" height="40" as="geometry" />
        </mxCell>
        <mxCell id="xuy46jT9oB1GYO3vlyH4-25" style="edgeStyle=orthogonalEdgeStyle;rounded=0;orthogonalLoop=1;jettySize=auto;html=1;exitX=0;exitY=0.5;exitDx=0;exitDy=0;entryX=0;entryY=0.5;entryDx=0;entryDy=0;" edge="1" parent="1" source="xuy46jT9oB1GYO3vlyH4-21" target="xuy46jT9oB1GYO3vlyH4-12">
          <mxGeometry relative="1" as="geometry">
            <Array as="points">
              <mxPoint x="320" y="380" />
              <mxPoint x="320" y="60" />
            </Array>
          </mxGeometry>
        </mxCell>
        <mxCell id="xuy46jT9oB1GYO3vlyH4-21" value="Coverage Analysis" style="rounded=1;whiteSpace=wrap;html=1;fontFamily=Verdana;" vertex="1" parent="1">
          <mxGeometry x="359.91" y="360" width="160" height="40" as="geometry" />
        </mxCell>
      </root>
    </mxGraphModel>
  </diagram>
</mxfile>
